<?xml version="1.0" standalone="no"?>
<!DOCTYPE svg PUBLIC "-//W3C//DTD SVG 20010904//EN"
 "http://www.w3.org/TR/2001/REC-SVG-20010904/DTD/svg10.dtd">
<svg version="1.0" xmlns="http://www.w3.org/2000/svg"
 width="150.000000pt" height="35.000000pt" viewBox="0 0 1134.000000 330.000000"
 preserveAspectRatio="xMidYMid meet">

<g transform="translate(-250.00000,330.000000) scale(0.1300000,-0.1100000)"
fill="#000000" stroke="none">
<path d="M1178 2513 c-10 -2 -18 -9 -18 -14 0 -5 -9 -9 -20 -9 -16 0 -20 -7
-20 -35 0 -41 -28 -105 -47 -105 -17 0 -16 -24 2 -60 9 -18 13 -40 9 -55 -4
-16 -2 -25 6 -25 6 0 8 -5 4 -11 -3 -6 -8 -155 -10 -332 l-3 -322 29 -45 c70
-109 90 -130 119 -130 32 0 56 23 66 61 5 20 2 28 -10 33 -14 5 -15 9 -5 21 9
11 7 18 -13 35 -23 20 -24 24 -23 170 1 83 -3 151 -7 153 -4 1 -1 20 8 41 10
23 14 52 11 68 -3 15 -1 28 4 28 4 0 7 32 5 70 -3 39 1 82 7 98 17 41 29 112
28 158 0 23 4 63 10 90 8 35 8 55 0 75 -16 39 -75 57 -132 42z" stroke="#000000" stroke-width="150"/>
<path d="M5226 2493 c-4 -11 -16 -14 -37 -11 -16 3 -32 1 -35 -4 -3 -4 -16 -8
-30 -8 -13 0 -32 -4 -42 -10 -18 -10 -99 -34 -119 -35 -6 0 -20 -8 -30 -18
-11 -9 -35 -17 -54 -17 -35 0 -109 -41 -109 -61 0 -6 -4 -8 -9 -4 -5 3 -12 1
-16 -5 -4 -6 -10 -8 -15 -5 -5 3 -11 1 -15 -5 -3 -5 -16 -10 -29 -10 -13 0
-31 -9 -41 -20 -10 -11 -28 -20 -40 -20 -13 0 -25 -6 -28 -14 -3 -7 -19 -16
-35 -19 -18 -4 -31 -14 -35 -27 -3 -13 -16 -22 -36 -26 -16 -4 -37 -17 -46
-31 -9 -13 -22 -22 -29 -21 -12 3 -76 -54 -76 -67 0 -4 -9 -18 -20 -32 -11
-14 -20 -22 -20 -17 0 5 -6 -2 -13 -16 -7 -14 -18 -26 -25 -26 -7 -1 -16 -2
-22 -3 -5 0 -10 -7 -10 -15 0 -8 -20 -45 -46 -81 -36 -53 -43 -70 -33 -81 7
-8 9 -29 6 -48 -3 -20 0 -41 8 -52 7 -11 15 -33 19 -50 8 -36 81 -110 146
-146 33 -19 72 -29 144 -37 54 -6 107 -16 117 -22 13 -7 25 -6 40 1 12 7 32 9
47 4 15 -4 32 -6 37 -4 9 2 46 10 120 25 206 43 293 66 325 86 14 9 55 19 91
22 l67 6 7 -65 c6 -55 4 -69 -11 -85 -12 -13 -13 -19 -4 -19 10 0 12 -16 7
-70 -3 -39 -2 -70 3 -70 5 0 14 -19 20 -42 7 -24 22 -62 35 -85 13 -23 26 -56
30 -73 7 -32 51 -70 82 -70 43 0 70 58 47 103 -22 41 -27 172 -7 188 10 9 10
15 2 25 -6 7 -11 39 -11 71 -1 32 -5 63 -9 68 -11 14 22 158 39 170 11 9 11
16 -4 41 l-17 31 36 48 c20 26 37 51 37 54 0 12 -84 87 -121 109 -41 25 -106
29 -133 9 -16 -12 -17 -19 -9 -48 18 -60 14 -117 -8 -133 -15 -10 -19 -20 -14
-35 6 -21 -8 -30 -19 -12 -12 18 -63 19 -116 0 -69 -23 -138 -39 -215 -49 -33
-4 -100 -15 -148 -25 -105 -21 -300 -14 -382 13 -48 17 -60 30 -101 111 -4 9
6 40 24 76 18 33 32 67 33 75 1 26 171 170 254 215 44 24 91 50 105 58 57 33
173 87 186 87 8 0 40 14 71 30 41 22 65 29 84 25 16 -4 40 0 56 8 33 16 120
14 175 -4 71 -23 158 25 158 87 0 18 -11 29 -49 49 -27 13 -52 29 -56 35 -3 5
-17 10 -31 10 -14 0 -40 6 -59 14 -29 13 -34 13 -39 -1z" stroke="#000000" stroke-width="150"/>
<path d="M1881 2390 c-24 -11 -48 -20 -55 -20 -6 -1 -32 -29 -58 -63 -35 -47
-49 -77 -57 -117 -9 -54 -25 -107 -42 -142 -5 -10 -9 -26 -9 -35 0 -10 -9 -29
-20 -43 -11 -14 -20 -37 -20 -52 0 -15 -4 -47 -9 -70 -23 -105 -38 -237 -32
-294 7 -71 27 -105 80 -139 22 -13 42 -29 46 -35 8 -13 62 -13 70 0 3 6 14 10
24 10 10 0 42 24 73 53 30 28 68 63 84 77 16 14 58 59 94 99 36 40 72 81 81
91 9 9 21 31 27 49 13 37 41 80 43 66 1 -6 3 -64 4 -130 0 -66 5 -151 9 -189
8 -61 13 -75 45 -107 36 -38 36 -38 75 -24 71 25 122 96 80 112 -8 3 -13 12
-9 21 7 19 -21 62 -42 62 -13 0 -15 8 -10 45 5 30 3 45 -4 45 -7 0 -4 11 6 26
10 16 13 30 8 35 -11 11 4 128 18 145 5 6 4 15 -3 22 -6 6 -7 18 -3 29 5 10 9
43 10 73 1 30 5 62 8 70 3 8 8 33 12 55 4 22 12 46 18 53 13 16 17 112 5 112
-4 0 -15 14 -23 31 -15 27 -19 30 -48 23 -47 -12 -87 -7 -109 13 -10 9 -24 18
-31 20 -7 1 -34 7 -62 13 -27 6 -51 15 -53 20 -2 6 -42 10 -90 10 -65 0 -98
-5 -131 -20z m312 -188 c41 -31 63 -72 39 -72 -4 0 -16 -21 -25 -48 -21 -56
-161 -242 -183 -242 -11 0 -15 -6 -11 -19 3 -12 -1 -22 -9 -25 -8 -3 -14 -12
-14 -20 0 -8 -9 -17 -19 -21 -11 -3 -23 -14 -26 -23 -3 -9 -33 -37 -65 -62
-33 -24 -78 -61 -100 -82 -21 -21 -44 -38 -50 -38 -11 0 -14 53 -3 64 4 4 8
28 10 54 3 64 21 159 37 196 7 17 23 64 35 104 13 40 29 76 37 79 10 4 11 10
4 23 -21 40 39 136 105 165 21 10 54 12 110 8 72 -5 85 -9 128 -41z" stroke="#000000" stroke-width="150"/>
<path d="M6902 2389 c-24 -10 -47 -17 -50 -15 -4 2 -29 -25 -56 -60 -35 -46
-52 -81 -62 -122 -16 -71 -37 -138 -47 -148 -4 -4 -7 -17 -7 -29 0 -12 -9 -34
-21 -49 -15 -19 -20 -37 -17 -61 2 -19 0 -36 -5 -38 -5 -1 -13 -43 -18 -92 -5
-49 -13 -104 -18 -122 -5 -19 -6 -46 -1 -63 5 -16 6 -38 3 -50 -10 -37 19 -81
81 -126 33 -24 66 -44 73 -44 42 0 98 28 126 64 17 21 43 46 58 55 14 9 65 59
113 111 112 123 107 117 135 178 14 28 28 52 32 52 12 0 15 -42 6 -85 -5 -24
-4 -91 3 -170 11 -125 13 -132 45 -171 40 -48 66 -49 130 -5 43 29 60 76 31
87 -8 3 -12 12 -9 20 7 18 -23 64 -42 64 -12 0 -14 12 -9 63 2 34 6 97 8 141
2 43 9 83 15 89 7 7 7 16 0 29 -5 10 -6 24 -2 31 4 6 8 25 9 41 5 88 17 156
36 194 13 27 18 52 14 68 -4 15 -2 32 5 40 9 11 8 14 -5 14 -8 0 -22 14 -31
30 -17 34 -17 34 -64 20 -30 -8 -44 -5 -98 20 -35 17 -71 30 -81 30 -9 0 -30
7 -46 15 -42 22 -179 19 -234 -6z m300 -180 c20 -16 42 -29 47 -29 35 0 -18
-114 -115 -245 -38 -52 -75 -95 -81 -95 -7 0 -13 -9 -13 -20 0 -11 -4 -20 -9
-20 -5 0 -12 -9 -16 -19 -3 -11 -15 -23 -25 -26 -10 -3 -22 -14 -25 -23 -3 -9
-46 -48 -95 -87 -49 -38 -92 -76 -95 -82 -2 -7 -12 -13 -21 -13 -13 0 -15 6
-10 33 4 17 8 48 10 67 8 84 27 183 41 210 8 16 15 36 15 45 0 8 4 23 9 33 5
9 14 35 21 57 7 22 20 45 29 51 12 10 13 15 3 26 -27 33 37 133 103 163 21 10
54 12 110 8 69 -4 85 -9 117 -34z" stroke="#000000" stroke-width="150"/>
<path d="M7802 2304 c-29 -20 -52 -66 -42 -84 16 -31 35 -266 22 -284 -10 -14
-17 -159 -16 -327 1 -149 18 -202 67 -207 41 -5 106 43 129 96 10 23 23 42 28
42 6 0 10 4 10 10 0 5 16 30 35 56 19 25 35 51 35 57 0 7 20 34 45 62 25 27
45 57 45 66 0 9 7 22 16 30 8 7 25 31 36 53 11 23 29 51 40 62 10 12 27 35 36
52 9 16 37 52 60 78 41 45 45 48 57 31 17 -23 25 -137 24 -332 -1 -124 3 -166
21 -240 12 -49 27 -96 33 -104 31 -38 94 -31 153 18 42 35 151 163 164 192 13
30 30 57 53 83 10 12 16 29 13 39 -3 13 10 33 44 64 26 24 51 56 55 70 10 40
16 22 20 -61 4 -73 17 -139 34 -181 5 -11 16 -41 25 -66 27 -76 73 -127 130
-144 69 -21 108 -19 165 9 110 53 221 184 206 244 -8 32 -21 42 -59 42 -22 0
-44 -16 -105 -79 -74 -77 -88 -86 -143 -82 -24 1 -67 72 -90 146 -21 66 -26
232 -9 278 6 14 7 41 4 61 -4 26 0 45 16 71 39 67 16 121 -58 135 -58 10 -74
4 -94 -36 -9 -19 -24 -50 -34 -70 -10 -20 -23 -38 -30 -41 -7 -3 -22 -26 -34
-51 -12 -26 -36 -63 -53 -83 -17 -20 -42 -53 -56 -73 -14 -20 -37 -50 -51 -66
-15 -17 -41 -59 -59 -94 -31 -61 -94 -136 -105 -124 -10 9 -14 307 -5 313 17
11 -2 142 -33 215 -43 105 -78 140 -139 140 -43 0 -113 -41 -124 -73 -3 -9
-14 -22 -25 -27 -10 -6 -19 -17 -19 -24 0 -8 -7 -16 -14 -19 -8 -3 -22 -21
-32 -39 -9 -18 -35 -51 -58 -73 -22 -22 -52 -63 -65 -90 -13 -28 -28 -57 -33
-65 -5 -8 -19 -38 -33 -66 -13 -29 -28 -54 -33 -55 -5 -2 -19 -19 -30 -37
l-20 -34 -4 48 c-2 26 2 61 7 79 9 24 12 297 6 430 -1 6 -14 25 -30 43 -33 35
-64 41 -99 16z" stroke="#000000" stroke-width="150"/>
<path d="M5817 2262 c-36 -22 -39 -37 -26 -103 6 -30 11 -64 10 -77 0 -13 4
-33 10 -44 7 -13 13 -115 15 -277 4 -276 10 -392 22 -402 4 -3 21 -11 39 -18
29 -12 36 -11 74 10 22 13 48 36 57 51 15 26 15 29 -6 51 -25 27 -29 74 -8
102 8 11 12 25 9 32 -6 16 16 75 33 85 7 5 10 17 7 28 -6 24 45 128 67 135 8
3 23 23 33 44 23 51 43 71 172 173 37 30 90 52 108 45 7 -3 21 1 31 9 10 7 38
16 61 20 40 6 44 9 53 45 19 73 -28 97 -148 75 -54 -10 -72 -17 -115 -45 -22
-14 -52 -32 -67 -40 -15 -8 -49 -33 -75 -57 -26 -24 -51 -44 -55 -44 -6 0 -47
-63 -60 -92 -4 -10 -12 -18 -17 -18 -9 0 -42 -62 -56 -105 -13 -40 -21 5 -14
82 4 50 2 103 -7 149 -7 39 -11 80 -7 92 3 12 -4 41 -17 67 -20 41 -25 45 -58
45 -21 0 -49 -8 -65 -18z" stroke="#000000" stroke-width="150"/>
<path d="M3345 2210 c-33 -27 -68 -56 -77 -64 -9 -8 -26 -19 -37 -26 -12 -6
-21 -21 -21 -34 0 -13 -6 -29 -14 -35 -8 -7 -17 -27 -20 -45 -4 -21 -14 -36
-25 -39 -10 -2 -21 -17 -24 -33 -3 -16 -31 -56 -61 -89 -31 -33 -56 -64 -56
-69 0 -5 -7 -17 -16 -27 -8 -9 -28 -41 -43 -71 -29 -56 -58 -72 -53 -28 26
227 31 403 16 508 -5 35 -13 48 -38 63 -43 26 -80 25 -100 -5 -12 -19 -16 -51
-15 -148 0 -208 -3 -293 -16 -378 -3 -19 -5 -39 -5 -45 1 -5 3 -47 5 -93 2
-69 7 -89 29 -122 14 -22 37 -42 51 -46 36 -9 83 14 109 53 22 31 90 111 174
201 17 19 32 41 32 49 0 7 11 18 24 24 15 7 35 34 51 68 14 31 40 79 58 107
43 70 136 169 141 152 3 -7 14 -69 26 -138 12 -69 26 -129 31 -134 5 -6 9 -25
9 -43 0 -18 11 -56 25 -85 14 -28 25 -56 25 -61 0 -24 59 -97 98 -122 39 -25
49 -27 103 -21 33 3 74 13 92 22 48 25 116 84 132 114 7 14 25 32 39 40 14 7
26 21 26 30 0 9 13 37 30 61 27 41 28 49 19 83 -18 66 -97 74 -125 13 -23 -51
-73 -127 -78 -117 -2 3 -28 -16 -59 -42 -30 -27 -63 -48 -72 -48 -22 0 -44 28
-45 57 0 13 -8 24 -21 28 -31 10 -61 92 -79 215 -7 41 -16 100 -21 130 -6 30
-10 71 -9 91 0 24 -5 39 -15 43 -8 3 -15 14 -15 24 0 24 -72 82 -102 82 -13 0
-50 -22 -83 -50z" stroke="#000000" stroke-width="150"/>
</g>
</svg>
